<?xml version="1.0" encoding="UTF-8"?><svg id="Layer_2" xmlns="http://www.w3.org/2000/svg" width="63.38" height="64.38" viewBox="0 0 63.38 64.38"><defs><style>.cls-1{fill:#000;}.cls-1,.cls-2{stroke-width:0px;}.cls-2{fill:#fff;}</style></defs><g id="Layer_1-2"><path class="cls-1" d="M0,0h63.38v64.38H0V0ZM36.91,18.47c-.56-.41-1.13-.82-1.69-1.24-8.1,3.23-6.19,13.65-12.01,18.98-2.24-5.21-4.54-10.17-6.49-15.26-1.19-3.1-2.88-4.1-6.29-2.64,4.19,9.74,8.31,19.32,12.43,28.91.56-.07,1.11-.13,1.67-.2,4.13-9.52,8.26-19.04,12.39-28.55ZM49.47,17.67c-3.47.29-7.36-1.53-8.66,4.33,5.3-1.09,4.22,2.63,4.24,5.54.04,6.3.01,12.6.01,19.09h4.41v-28.97Z"/><path class="cls-2" d="M36.91,18.47c-4.13,9.52-8.26,19.04-12.39,28.55-.56.07-1.11.13-1.67.2-4.12-9.59-8.25-19.18-12.43-28.91,3.41-1.46,5.11-.46,6.29,2.64,1.95,5.09,4.25,10.04,6.49,15.26,5.82-5.33,3.9-15.75,12.01-18.98.56.41,1.13.82,1.69,1.24Z"/><path class="cls-2" d="M49.47,17.67v28.97h-4.41c0-6.49.03-12.79-.01-19.09-.02-2.91,1.07-6.64-4.24-5.54,1.3-5.86,5.18-4.05,8.66-4.33Z"/></g></svg>