<?xml version="1.0" encoding="UTF-8"?><svg id="Layer_2" xmlns="http://www.w3.org/2000/svg" width="1192.57" height="256.78" viewBox="0 0 1192.57 256.78"><defs><style>.cls-1{fill:#ecf1f0;}.cls-1,.cls-2,.cls-3,.cls-4,.cls-5,.cls-6,.cls-7,.cls-8,.cls-9,.cls-10,.cls-11,.cls-12,.cls-13,.cls-14,.cls-15,.cls-16,.cls-17,.cls-18,.cls-19,.cls-20,.cls-21,.cls-22,.cls-23,.cls-24,.cls-25,.cls-26,.cls-27,.cls-28,.cls-29,.cls-30,.cls-31,.cls-32,.cls-33,.cls-34{stroke-width:0px;}.cls-2{fill:#ebf1f0;}.cls-3{fill:#f1f5f4;}.cls-4{fill:#f9fbfa;}.cls-5{fill:#f6f8f8;}.cls-6{fill:#f2f5f5;}.cls-7{fill:#ceddda;}.cls-8{fill:#f2f6f5;}.cls-9{fill:#e9efee;}.cls-10{fill:#f8f9f9;}.cls-11{fill:#e8eeed;}.cls-12{fill:#d3e0de;}.cls-13{fill:#dce6e5;}.cls-14{fill:#dbe5e3;}.cls-15{fill:#e5edeb;}.cls-16{fill:#e7eeed;}.cls-17{fill:#c6d7d4;}.cls-18{fill:#024f42;}.cls-19{fill:#fafbfb;}.cls-20{fill:#edf2f1;}.cls-21{fill:#fcfdfc;}.cls-22{fill:#035043;}.cls-23{fill:#d6e2e0;}.cls-24{fill:#f0f4f3;}.cls-25{fill:#e6edec;}.cls-26{fill:#eef3f2;}.cls-27{fill:#f3f6f6;}.cls-28{fill:#f3f6f5;}.cls-29{fill:#eaf0ef;}.cls-30{fill:#cddbd9;}.cls-31{fill:#f5f8f7;}.cls-32{fill:#075246;}.cls-33{fill:#e2ebe9;}.cls-34{fill:#fbfcfc;}</style></defs><g id="Layer_2-2"><path class="cls-20" d="M627.48,89.24c.56-.54,1.12-1.07,1.68-1.61-14.59-15.49-16.38-33.99-4.76-48.85,10.96-14.01,28.79-16,47.87-5.09,1.24-3.09,2.68-6.07,3.64-9.19,1.13-3.69,3.08-5.44,7.48-3.92-3.17,4.82-6.31,9.59-9.75,14.81,6.05,6.82,8.93,15.04,8.75,24.36-.48,24.81-24.83,40.5-47.64,30.78-1.76-.75-4.08-.17-6.15-.21-.38-.36-.76-.72-1.13-1.08ZM678.68,62.44c-.41-11.91-5.57-21.66-15.69-28.44-14.33-9.6-32.2-4.38-39.59,11.26-6.36,13.46-.53,31.6,13.04,40.39,8.76,5.67,18.21,6.81,27.36,1.86,9.5-5.14,14.54-13.69,14.88-25.07Z"/><path class="cls-29" d="M572.08,26.96c4.12,0,8.39-.71,12.31.14,8.84,1.93,13.94,9.9,13.99,20.99.06,12.02-.03,24.04-.19,36.06-.04,3.46-.21,6.74,5.02,7.42-7.71,2.22-10.23-.15-11.6-10.11-3.46,2.65-6.68,5.45-10.22,7.74-6,3.88-12.62,5.28-19.74,3.96-7.42-1.38-13.01-6.46-13.98-12.74-1.15-7.5,2.46-15.23,9.71-18.06,6.64-2.59,13.79-3.88,20.73-5.74.46-.12.96-.1,1.43-.19,12.58-2.41,15.14-6.21,12.07-18.76-1.57-6.41-4.96-9.6-14.87-9.85-1.54-.04-3.09.13-4.64.21-.01-.36-.03-.72-.04-1.08ZM592.08,55.17c-6.05,1.5-11.67,2.67-17.16,4.31-4.56,1.37-9.22,2.8-13.37,5.07-5.71,3.12-7.93,10.28-6.04,16.82,1.66,5.75,6.82,9.24,13.74,8.96,9.1-.37,15.83-5.4,21.84-11.64.59-.61.93-1.7.94-2.57.08-6.86.04-13.72.04-20.95Z"/><path class="cls-16" d="M227.24,44.28c-1.16-7.75-6.05-12.64-13.08-16.28,9.75-.77,20.69,12.05,19.18,20.44-11.76,0-23.6,0-35.44,0-6.41,0-12.83.15-19.24-.06-3.26-.11-4.46.91-4.71,4.27-1.17,15.69,4.96,27.51,17.33,32.77,14.93,6.34,28.72,3.08,39.38-9.31.51-.6,1-1.22,1.68-2.06-.81,9.44-14.87,18.74-28.78,19.37-16.63.75-30.23-10.57-33.29-27.73-2.33-13.07,3.43-28.28,12.76-31.86-2.29,3.88-4.71,8-7.14,12.13.35.25.69.51,1.04.76,16.69,0,33.38,0,50.07,0,.08-.81.16-1.62.24-2.43Z"/><path class="cls-16" d="M850.03,44.42c-1.39-7.71-5.54-12.81-13.18-16.22,8.62-1.42,18.53,8.49,19.56,20.01-1.69.08-3.37.22-5.05.22-16.51.02-33.02.08-49.53-.05-3.29-.03-4.81.6-5.1,4.34-1.16,15.03,4.77,27.03,16.47,32.38,14.26,6.53,28.05,3.84,39-7.58.61-.63,1.33-1.15,2.33-1.35-3.52,7.48-9.34,12.4-17.09,15.18-15.64,5.62-32.09.02-40.16-13.68-8.29-14.07-5.69-32.35,6.21-43.02,1.11-.99,2.68-1.47,4.03-2.18h0c-2.27,2.9-4.64,5.74-6.76,8.76-.96,1.37-1.42,3.08-2.11,4.64.39.28.78.55,1.17.83,16.69,0,33.38,0,50.07,0,.05-.76.1-1.52.15-2.28Z"/><path class="cls-11" d="M389.57,45.96c-1.07-8.42-5.85-14.14-13.72-18.01,9.61-.85,20.95,11.98,19.29,20.49-5.94,0-11.99,0-18.05,0-12.03,0-24.06.14-36.08-.08-3.7-.07-5.05,1.01-5.26,4.78-.89,15.83,5.28,27.25,17.89,32.43,14.7,6.04,28.17,2.86,38.61-9.12.6-.69,1.16-1.41,1.74-2.12.4.28.8.57,1.2.85-2.41,3.1-4.49,6.52-7.28,9.24-13,12.65-35.25,11.93-47.55-1.35-12.32-13.29-11.42-36.23,1.93-48.13.9-.8,2.15-1.2,3.23-1.79,0,0,.08.21.08.21-2.62,4.19-5.24,8.39-7.86,12.58.31.25.62.5.92.76,16.7,0,33.39,0,50.09,0,.27-.25.54-.5.81-.75Z"/><path class="cls-8" d="M958.75,34.36c.68.33,1.37.66,2.47,1.19,1.4-9.68,3.12-19.1,3.88-28.6.17-2.09-3.07-4.45-4.53-6.42,6.41-2.05,11.25,1.89,10.18,9.32-3.41,23.79-6.56,47.62-10.17,71.38-.84,5.52.21,9.04,6.12,10.53-4.09,1.16-7.85,1.67-10.7-1.73-.96-1.15-1.37-2.88-1.71-4.42-.46-2.1-.64-4.27-.9-6.41-.05-.43.02-.93.21-1.31,5.61-11.69,4.39-24.67,6.82-36.96.33-1.67-1.7-3.81-2.64-5.73.33-.28.65-.55.98-.83Z"/><path class="cls-6" d="M1066.51,92.11c-7.95-.18-13.27-4.18-13.33-12.01-.08-9.39,1.25-18.8,2.25-28.17.8-7.45,2.02-14.85,3.16-23.02h-9.6c16.14-6.06,22.25-15.95,14.21-23.65.21-.16.43-.45.65-.45,8.73-.22,11.14,3.4,6.51,11.15-2.6,4.35-6.85,7.71-10.23,11.39h21.38c.03.4.05.8.08,1.2h-16.87c-1.71,12.04-3.45,23.42-4.89,34.84-.67,5.38-1.06,10.85-1,16.27.06,5.31,2.43,9.56,7.66,11.72-.01.25,0,.49.03.74Z"/><path class="cls-3" d="M737.36,47.89c2.74-4.64,4.96-9.71,8.33-13.83,5.79-7.06,12.74-8.84,20.11-6,7.88,3.04,11.06,9.32,11.18,17.36.13,8.97.06,17.95.07,26.92,0,3.2,0,6.41,0,9.61q0,7.48,8.39,10.18h-14.39c0-6.46,0-12.97,0-19.47,0-8.97.09-17.95-.05-26.92-.09-5.75-.9-11.42-7.08-14.06-5.66-2.42-12.51-.58-17.3,5.01-3.19,3.72-5.63,8.09-8.41,12.17-.29-.33-.57-.65-.86-.98Z"/><path class="cls-24" d="M958.75,34.36c-.33.28-.65.55-.98.83-12.7-7.06-24.34-4.06-32.51,8.56-6.19,9.56-8.88,20.09-8.06,31.47.99,13.77,9.2,18.9,21.98,13.79,1.01-.4,2.12-.56,3.18-.84,0,0,.04.09.04.09-8.94,9.47-26.01,5.73-30.72-6.73-6.55-17.33,4.3-43.3,21.43-50.42,8.94-3.72,17.78-3.29,25.63,3.25Z"/><path class="cls-31" d="M492.17,45.12c-.47,1.67-1.33,3.34-1.35,5.01-.12,11.69-.36,23.4.18,35.07.11,2.42,3.29,4.71,5.06,7.06h-18.32c2.52-1.69,5.6-2.73,6.72-4.81,1.15-2.13.46-5.3.47-8.01.03-10.73.14-21.47-.04-32.2-.1-6.33-.61-13.01-7.43-15.95-7.23-3.11-13.75-.49-19.54,4.22-1.63,1.33-3.15,2.79-4.93,3.94,3.91-8.57,13.74-13.86,22.44-12.46,8.48,1.36,13.5,6.54,14.77,15.23.66.97,1.32,1.93,1.99,2.89Z"/><path class="cls-27" d="M492.17,45.12c-.66-.96-1.32-1.93-1.99-2.89.86-.47,2.09-.72,2.53-1.44,3.62-5.89,8.02-10.92,14.86-12.99,12.76-3.87,23.36,4.21,23.56,18.04.17,11.87.18,23.75-.02,35.62-.09,5.22-.13,9.95,6.81,10.75h-12.56c0-12.17.02-24.32-.01-36.47-.01-4.17.22-8.38-.3-12.49-1.43-11.39-9.96-16.24-20-10.54-5.03,2.85-8.63,8.21-12.88,12.43Z"/><path class="cls-27" d="M737.75,50.26c-5.3,11.49-2.51,23.69-2.76,35.57-.04,2.03,3.36,4.12,5.3,6.32h-19.66c2.29-.94,3.58-1.11,4.32-1.85,1.42-1.4,3.58-3.1,3.6-4.71.26-16.99.08-33.99.21-50.99.04-4.74-3.49-5.06-6.7-6.11,7.29-2.73,12.6.91,12.64,8.53.03,4.46,0,8.92,0,14.53,1.13-1.36,1.55-1.86,1.96-2.36.36.35.71.7,1.07,1.05Z"/><path class="cls-15" d="M281.2,27.71c5.07-.2,9.31-1.38,11.68,3.23.75,1.45,1.27,3.09,1.52,4.7.73,4.58,1.54,9.18,1.8,13.8.16,2.78-.96,5.61-.99,8.43-.13,11.36-.05,22.73-.05,34.31h-13.31c.2-.76.25-1.32.35-1.32,6.5-.5,7.01-4.65,6.89-10.04-.3-13.78-.1-27.57-.1-41.35q0-8.24-7.8-11.75Z"/><path class="cls-3" d="M1124.28,55.77c7.73-.75,10.71-4.81,11.18-12.74.62-10.47-3.12-15.47-13.71-15.24-1.7.04-3.39,0-5.09,0,0-.41,0-.81,0-1.22,3.68,0,7.4-.37,11.02.08,7.47.92,13.06,6.27,12.81,13.78-.35,10.34-1.96,20.65-3.16,30.96-.59,5.08-1.76,10.11-2.07,15.2-.11,1.78,1.57,3.66,2.41,5.44-5.22,1.9-9.1-1.28-8.17-7.82,1.35-9.44,2.6-18.9,3.96-28.87-2.83.51-5.26.95-7.68,1.39-.5-.32-1-.64-1.5-.97Z"/><path class="cls-8" d="M1020.29,54.83c5.05-.56,7.2-3.41,6.85-8.42-.08-1.08.39-2.2.56-3.31,1.67-11.21-4.71-17.21-15.87-14.94-.97.2-1.99.16-3.86.29,5.09-3.11,13.4-2.82,18.25.32,6.31,4.08,7.74,10.45,6.93,17.28-1.57,13.2-3.66,26.33-5.26,39.53-.24,2.01,1,4.19,1.63,6.56-4.78,1.6-8.51-1.43-7.59-7.66.14-.95.13-1.91.2-2.87,0-1.01.02-2.03.03-3.04,1.35-7.75,2.69-15.49,4.1-23.62-2.4.56-4.19.98-5.98,1.4,0-.5,0-1,0-1.51Z"/><path class="cls-21" d="M712.61,92.34h-12.91v-5.64c0-15.55-.09-31.1.05-46.65.05-5.48.73-11-6.99-12.1h12.82v28.24c0,8.02.21,16.04-.07,24.05-.21,5.76-.04,10.83,7.11,12.1Z"/><path class="cls-19" d="M412.84,92.19c0-17.54,0-34.84,0-52.15,0-5.26,1.45-11.35-8.38-10.84.49-.42.98-.84,1.47-1.26h12.8v4.27c0,15.87-.07,31.74.03,47.61.06,9.53-1.48,8.16,8.14,12.37h-14.06Z"/><path class="cls-26" d="M1022.17,78.56c0,1.01-.02,2.03-.03,3.04-2.08,1.35-4.21,2.61-6.21,4.07-6.88,5.01-14.26,8.59-23.05,7.82-6.03-.53-11.4-2.6-13.92-8.59-2.66-6.32-.57-12.35,3.75-16.81,3.28-3.39,7.88-6.13,12.4-7.53,8.2-2.55,16.77-3.88,25.19-5.72,0,.5,0,1,0,1.51-4.18,1.04-8.5,1.71-12.51,3.22-5.89,2.22-12.09,4.28-17.19,7.8-5.32,3.67-6.51,12.47-3.84,17.46,2.63,4.92,8.99,7.47,16.03,4.64,6.82-2.74,12.95-7.19,19.39-10.9Z"/><path class="cls-26" d="M1124.28,55.77c.5.32,1,.64,1.5.97-6.43,1.81-12.94,3.4-19.27,5.49-8.59,2.85-13.02,8.53-13.29,16.27-.25,7.11,3.77,11.5,10.85,11.84,6.53.32,12.14-2.26,17.48-5.65,1.28-.82,2.5-1.72,4.14-1.95-4.61,5.55-10.68,8.72-17.6,10.28-2.45.55-5.1.64-7.62.43-6.02-.5-11.43-2.53-13.89-8.59-2.56-6.31-.64-12.37,3.78-16.82,3.33-3.35,7.92-6.02,12.43-7.49,6.94-2.27,14.3-3.25,21.48-4.77Z"/><path class="cls-34" d="M436.32,91.73c9.03-3.44,7.09-2.96,7.16-11.03.13-14.25-.15-28.51.14-42.75.1-5.19-.83-8.87-7.38-9.35,8.39-2.6,13.15.92,13.16,8.98,0,15.04,0,30.08,0,45.12,0,8.27-4.78,11.57-13.08,9.03Z"/><path class="cls-8" d="M675.42,96.93c-7.29-.11-12.73,3.93-18.03,8.08-7.31,5.73-14.44,11.68-21.7,17.47-1.24.99-2.67,1.77-4.1,2.46-9.57,4.64-17.93-.92-17.78-11.99.41.25,1,.41,1.03.65,1,7.55,5.1,9.08,12.09,5.32,6.47-3.48,12.43-7.88,18.8-11.54,6.63-3.81,13.36-7.49,20.31-10.66,2.67-1.22,6.05-.86,9.11-1.22.09.48.18.95.27,1.43Z"/><path class="cls-26" d="M663.22,126.52c16.35-13.99,19.32-19.27,15.68-27.42,3.84,1.72,5.03,6.31,3.35,12.98-2.73,10.84-8.65,15.5-19.03,14.44Z"/><path class="cls-33" d="M324.8,40.81c-.89-2.18-1.33-3.19-1.71-4.21-2.21-5.92-4.18-7.2-9.84-3.99-4.57,2.6-8.26,6.78-12.23,10.38-1.38,1.26-2.42,2.89-3.92,4.08,7.19-14.61,15.8-20.5,27.7-19.23v12.97Z"/><path class="cls-27" d="M414.65,11.74c-1.45-1.89-2.96-3.87-4.56-5.96,1.28-1.29,3.02-3.03,4.75-4.77,1.66,1.85,3.31,3.68,5.32,5.92-1.36,1.19-3.24,2.83-5.5,4.81Z"/><path class="cls-20" d="M702.54,1.44c1.3,1.22,3.03,2.84,5.17,4.85-2.07,1.88-3.91,3.56-6.24,5.67-1.49-1.92-2.94-3.78-4.69-6.04,1.48-1.15,3.49-2.71,5.76-4.47Z"/><path class="cls-30" d="M564.16,29.18c-3,3.62-6.1,7.37-9.08,10.96v-13.48c1.4,1.28,2.69,2.47,4,3.66,2-.45,3.97-.89,5.08-1.14Z"/><path class="cls-14" d="M627.48,89.24c.38.36.76.72,1.13,1.08-3.58,3.58-7.78,6.74-10.54,10.86-2.25,3.37-2.79,7.9-4.03,11.74-4.46-4.18,3.87-19.18,13.43-23.68Z"/><path class="cls-11" d="M1098.14,39.55c.73-4.56,1.36-8.56,2.1-13.19,1.4,1.61,2.44,2.82,3.58,4.14,2.19-.6,4.42-1.21,6.51-1.79-3.86,3.43-7.68,6.83-12.19,10.85Z"/><path class="cls-24" d="M990.62,39.04c.64-3.98,1.28-7.97,1.94-12.01,1.96,1.42,3.92,2.83,5.68,4.1-2.04,2.54-4.41,5.51-6.79,8.47-.28-.19-.55-.37-.83-.56Z"/><path class="cls-33" d="M1066.51,92.11c-.03-.25-.04-.49-.03-.74,2.04.8,3.49.55,4.34-1.84,1-2.8,2.34-5.49,3.97-9.23v12.44c-3.06-.23-5.67-.43-8.28-.63Z"/><path class="cls-18" d="M946.9,83.61c.43.65.95,1.16.85,1.32-.27.46-.75.84-1.23,1.11-.09.05-.86-.68-.79-.85.19-.51.64-.91,1.17-1.58Z"/><path class="cls-18" d="M942.36,88.18c.34-.41.67-.83,1.01-1.24.1.11.2.22.3.33-.42.33-.85.67-1.27,1,0,0-.04-.09-.04-.09Z"/><path class="cls-22" d="M371.39,26.64c.3-.2.6-.39.9-.59l.17.29c-.31.15-.63.31-.94.46,0,0-.13-.16-.13-.16Z"/><path class="cls-27" d="M737.36,47.89c.29.33.57.65.86.98-.16.47-.32.93-.47,1.4-.36-.35-.71-.7-1.07-1.05.23-.44.46-.88.69-1.32Z"/><path class="cls-22" d="M227.24,44.28c-.08.81-.16,1.62-.24,2.43.08-.81.16-1.62.24-2.43Z"/><path class="cls-22" d="M850.03,44.42c-.05.76-.1,1.52-.15,2.28.05-.76.1-1.52.15-2.28Z"/><path class="cls-22" d="M799.81,46.71c-.39-.28-.78-.55-1.17-.83.39.28.78.55,1.17.83Z"/><path class="cls-22" d="M389.57,45.96c-.27.25-.54.5-.81.75.27-.25.54-.5.81-.75Z"/><polygon class="cls-17" points="157.71 48.76 157.88 48.69 157.73 48.82 157.71 48.76"/><path class="cls-22" d="M338.67,46.71c-.31-.25-.62-.5-.92-.76.31.25.62.5.92.76Z"/><path class="cls-22" d="M176.94,46.71c-.35-.25-.69-.51-1.04-.76.35.25.69.51,1.04.76Z"/><path class="cls-1" d="M252.72,160.56c4.56-1.14,8.03-.72,11.67,1.89,4.29,3.08,1.12,7.39,2.91,11.31,1.1-1.29,2.06-2.49,3.08-3.62,5.26-5.81,11.42-10.1,19.48-10.75,8.13-.65,14.61,2.36,19.06,9.31,8.85,13.8,6.67,36.38-4.62,48.26-8.64,9.09-22.82,10.63-33.6,3.64-1.1-.72-2.16-1.5-3.99-2.78v9.75c0,6.26.25,12.53-.12,18.77-.15,2.46-1.44,4.98-2.65,7.23-2.43,4.51-6.48,2.95-11.15,2.89q7.86-4.65,7.86-13.48v-70.61q0-8.49-7.92-11.82ZM266.72,196.19c0,5.3-.14,10.61.09,15.9.07,1.59.78,3.5,1.85,4.65,7.07,7.53,20.11,7.81,27.62.76,10.51-9.86,14.1-31.44,7.59-45.6-4.75-10.33-13.16-13.44-22.95-7.8-8.73,5.03-16.03,11.32-14.27,23.14.44,2.92.07,5.97.07,8.96Z"/><path class="cls-24" d="M717.44,205.46c-3.32,5.04-6.03,10.67-10.12,14.98-5.89,6.2-13.62,7.86-21.69,4.32-7.84-3.44-10.33-10.35-10.39-18.33-.09-12.51-.02-25.03-.03-37.54,0-5.63-1.08-6.78-6.78-7.36-.67-.07-1.35-.12-2.03-.12-7.47,0-14.94,0-23.06,0v4.41c0,17.82-.14,35.64.1,53.45.06,4.27-3.04,5.48-5.56,6.49-2.26.9-5.25-.01-7.91-.16-.01,0,0-.5,0-1.04.53-.12,1.14-.36,1.76-.39,4.18-.23,5.78-2.24,5.73-6.57-.2-17.41-.08-34.82-.08-52.23v-3.91h-12.02c-.02-.34-.03-.68-.05-1.02h14.79c-2.55-3.28-4.7-5.62-6.37-8.26-4.15-6.57-2.91-13.01,3.91-16.62,4.43-2.34,9.64-3.22,14.5-4.75,0,.33,0,.66,0,.99-.9.29-1.8.6-2.71.87-8.64,2.56-11.88,7.68-10.41,16.49.09.54.1,1.09.21,1.62,1.94,8.9,2.32,9.2,11.4,9.2,8.83,0,17.65,0,26.48,0,1.32,0,2.65.11,4.31.19,0,5.17,0,10.03,0,14.9,0,11.02-.15,22.04.08,33.05.27,13.17,9.7,18.5,21.46,12.32,5.65-2.97,9.28-7.8,12.16-13.32.56-1.08,1.11-2.17,1.66-3.26.22.54.44,1.08.66,1.62Z"/><path class="cls-2" d="M50.76,226.16h-20.05c.08-.48.09-.69.13-.7,7.25-1.1,7.28-6.16,7.15-11.97-.3-14.28-.1-28.57-.1-42.85q0-7.43-6.84-9.68c6.34-3.57,12.04,1.56,13.01,7.26.45,2.65.08,5.43.08,8.15,0,2.66,0,5.32,0,8.32,3.14-5.51,5.76-10.83,9.05-15.68,3.79-5.57,8.88-9.55,16.14-9.52,8.94.04,16.02,5.85,17.24,14.73.65,4.68.57,9.49.61,14.24.09,8.98.02,17.96.02,26.94q0,7.72,6.84,10.58h-13.06c0-1.94,0-4.07,0-6.2,0-12.92.01-25.85-.02-38.77,0-2.17.01-4.38-.35-6.51-1.67-9.83-10.02-14.15-18.79-9.33-3.33,1.83-6.44,4.7-8.66,7.8-5.75,8.04-9.94,16.74-9.11,27.17.42,5.27.33,10.62-.01,15.91-.25,3.81.6,6.56,4.26,8.15.78.34,1.38,1.09,2.44,1.97Z"/><path class="cls-24" d="M207.47,192.26c-.11,19.89-15.26,35.21-34.71,35.12-18.34-.08-31.93-14.18-31.92-33.09.02-20.23,14.99-35.51,34.72-35.45,18.6.06,32.01,14.12,31.9,33.42ZM203.65,195.09c-.14-7.93-2.99-14.85-7.77-21-14.32-18.41-40.13-15.68-48.92,5.14-5.97,14.14.96,32.73,15.35,41.02,8.89,5.12,18.23,5.88,27.06.59,9.47-5.66,14.42-14.45,14.28-25.74Z"/><path class="cls-3" d="M327.32,194.1c.06-20.24,15.01-35.37,34.84-35.24,18.35.12,31.87,14.26,31.74,33.2-.15,20-15.08,35.28-34.53,35.34-18.59.05-32.11-13.99-32.05-33.29ZM390.17,196.83c-.18-12.49-6.55-24.04-15.91-30.15-10.56-6.89-23.67-6.52-32.17.92-15.48,13.53-14.21,36.62,2.91,50.12,9.08,7.16,19.4,9.08,29.7,3.72,10.07-5.24,15.22-14.35,15.47-24.61Z"/><path class="cls-3" d="M976.91,191.87c-.01,20.08-15.22,35.61-34.79,35.51-18.3-.09-31.96-14.26-31.93-33.11.03-20.2,15.06-35.5,34.78-35.42,18.43.07,31.95,14.05,31.94,33.02ZM973.04,195.58c-.2-10.35-4.34-18.96-11.9-25.84-10.97-9.99-26.28-10.68-36.3-1.9-13.36,11.7-14.3,30.53-2.24,44.8,8.81,10.42,21.51,14.16,33.21,9.78,9.83-3.68,17.39-15.47,17.23-26.83Z"/><path class="cls-3" d="M520.76,163.71c-5.93,3.83-10.76,8.56-13.21,15.84h53.48c-1.57-9.68-6.42-16.29-16.01-19.48,9.77-1.68,21.42,9.77,21.65,21.25-1.45,0-2.9,0-4.35,0-17.27,0-34.53,0-51.8,0-1.92,0-3.87-.3-4.25,2.46-1.85,13.61,2.03,27.27,15.4,34.45,14.01,7.53,30.04,4.61,40.83-7.17.53-.58.7-1.5,1.03-2.27.48.36.97.73,1.45,1.09-.34.82-.58,1.71-1.05,2.44-7.77,11.94-23.25,17.65-37.61,13.92-13.51-3.52-23.39-15.87-24.33-30.4-.96-14.92,5.58-27.1,17.73-33.02.34.3.69.6,1.03.89Z"/><path class="cls-8" d="M1130.68,207.76c-3.99,13.68-21.89,22.22-38.08,18.77-16.12-3.44-27.08-19.55-25.36-37.29,1.48-15.23,14.2-29.16,27.06-29.13-9.79,3.4-17.74,8.78-21.53,19.42h53.49c-1.49-9.41-6.34-16.06-16.03-19.54,10.49-.87,22.78,11.5,21.5,21.33-2.48,0-5.03,0-7.57,0-16.18,0-32.35.07-48.53-.06-2.94-.02-3.96.85-4.3,3.81-1.72,15.25,4.62,28.23,16.71,33.67,15.14,6.82,29.54,3.85,40.25-8.32.79-.9,1.6-1.78,2.39-2.66Z"/><path class="cls-6" d="M1172.75,160.18c-5.17.91-10.43,1.51-15.47,2.87-2.33.63-4.56,2.46-6.32,4.25-5.06,5.12-4.61,11.88,1.52,15.59,4.46,2.7,9.61,4.29,14.53,6.17,4.81,1.83,9.84,3.13,14.56,5.15,6.13,2.63,11.19,6.49,11.01,14.12-.2,8.33-4.42,14.11-11.87,17.49-6.65,3.02-13.54,2.39-20.39.71-2.37-.58-4.63-1.72-7.02-2.06-2.54-.36-5.18-.08-8.16-.08v-14.97c.93,2.21,1.86,3.75,2.21,5.41.95,4.51,3.88,6.65,8.01,8.14,7.18,2.59,14.39,4.28,21.89,2.02,2.52-.76,5.08-2.13,7.02-3.89,6.19-5.58,5.42-14.53-1.86-18.47-4.84-2.62-10.31-4.06-15.44-6.17-5.12-2.11-10.58-3.75-15.17-6.72-10.34-6.67-9.86-20.02.58-26.63,6.26-3.96,13.19-4.73,20.39-4.08,0,.39,0,.77-.01,1.16Z"/><path class="cls-3" d="M841.45,160.19c-5.17.9-10.45,1.41-15.46,2.84-2.56.73-5.02,2.77-6.9,4.8-4.46,4.81-3.95,11.26,1.61,14.71,4.53,2.81,9.77,4.54,14.8,6.49,4.79,1.86,9.84,3.11,14.55,5.13,6.26,2.68,11.42,6.59,11.12,14.42-.32,8.32-4.59,14-12.08,17.32-6.54,2.9-13.27,2.28-19.98.68-2.24-.53-4.38-1.54-6.64-1.9-2.77-.45-5.61-.46-8.84-.69v-14.18c.42.5.8.75.84,1.05,1.43,10.45,9.4,12.92,17.9,14.54,5.96,1.14,11.92,1.14,17.44-1.97,4.48-2.52,7.08-6.29,7.15-11.52.07-5.01-2.94-8.17-7.12-9.97-5.46-2.36-11.19-4.06-16.71-6.3-4.5-1.83-9.21-3.49-13.18-6.19-9.67-6.57-9.28-19.36.44-25.94,6.41-4.33,13.58-5.15,21.06-4.48,0,.39,0,.77-.01,1.16Z"/><path class="cls-4" d="M761.88,226.12h-13.42v-4.43c0-26.63,0-53.27,0-79.9q0-6.72-6.56-8.22c-.3-.07-.54-.41-1.42-1.12h14v4.43c0,25.68-.04,51.37.02,77.05.02,9.15-1.13,8.22,7.38,12.19Z"/><path class="cls-29" d="M126.61,226c-9.13-.39-15.2-6.16-16.19-16.12-.66-6.61-.71-13.29-.8-19.95-.12-9.37-.03-18.74-.03-28.52h-9.91c-.04-.36-.08-.72-.13-1.07,1.17-.22,2.34-.45,3.52-.67,6.34-1.17,11.34-6.12,12.2-12.08.75-5.16-.29-7.38-5.77-10.69,3.49,0,5.97-.2,8.39.11.86.11,1.91,1.33,2.27,2.28,2.18,5.65-.12,12.27-5.81,16.94-1.35,1.11-2.88,2.01-5.43,3.76h24.22c-.01.43-.02.86-.03,1.29h-16.77c-.24.95-.48,1.46-.48,1.97.05,14.7-.14,29.4.31,44.08.23,7.54,2.35,14.61,10.46,17.82,0,.28-.02.57-.03.85Z"/><path class="cls-6" d="M896.12,225.98c-9.01-.32-15.15-5.9-16.19-15.58-.74-6.86-.76-13.82-.86-20.74-.13-9.23-.03-18.47-.03-28.24h-10.06c-.11-.37-.21-.75-.32-1.12,6.15-.62,11.44-2.6,14.49-8.23,3.2-5.91,2.18-10.94-3.73-15.17,1.8,0,2.94,0,4.07,0,5.86-.01,7.35,1.47,6.85,7.42-.6,7.17-5.21,11.56-10.96,15.68h23.07c0,.42.02.84.03,1.26h-17.33c0,2.92-.02,5.19,0,7.46.13,13.18-.03,26.38.52,39.55.3,7.27,2.67,13.96,10.47,16.9-.03.27-.03.54-.01.81Z"/><path class="cls-31" d="M588.57,226.49c-4.86-.07-9.09.2-13.72-.22.68-1.4.75-1.8.91-1.84q6.85-1.6,6.85-8.51c0-14.28,0-28.56,0-42.84q0-8.76-7.09-12.38c7.53-2.41,13.02,1.36,13.04,8.96,0,3.79,0,7.58,0,12.77,7.03-12.75,14.6-23.08,30.21-22.42v12.22c-.15.04-.31.07-.46.11-.6-1.57-1.49-3.1-1.74-4.73-.65-4.22-3.52-4.65-6.51-3.49-3.48,1.34-7.2,2.89-9.85,5.38-7.41,6.95-12.59,14.92-11.8,26.03.72,10.12.15,20.34.15,30.96Z"/><path class="cls-28" d="M444.67,169.13c-.33-2.86-.65-5.72-1.01-8.83h13.1c-.7.66-.92,1.01-1.22,1.14q-4.85,2.07-2.89,7.07c5.85,14.99,11.71,29.98,17.57,44.97,1.08,2.77,2.13,5.56,3.33,8.28.11.25,1.17.07,1.78.09.34.38.68.76,1.02,1.14-.58,5.37-4.57,3.06-7.64,3.49-5.79-14.79-11.54-29.5-17.31-44.2-1.63-4.15-3.31-8.28-4.98-12.41-.03-.06-.26-.11-.33-.07-.21.12-.39.3-.58.46-.28-.37-.55-.75-.83-1.12Z"/><path class="cls-28" d="M426.86,224.21c-.23,3-2.54,2.42-4.26,2.2-1.23-.16-3.08-.85-3.41-1.76-7.73-21.26-15.3-42.59-22.88-63.9-.03-.09.11-.24.17-.38h13.78q-6.26,3.27-4.02,9.55c6.34,17.74,12.67,35.47,19.01,53.21.54.36,1.08.72,1.62,1.08Z"/><path class="cls-9" d="M1049.33,160.29c0,18.02.06,35.69-.04,53.35-.03,5.61-.96,11.51,8.43,11.16-.35.4-.7.8-1.06,1.2h-13.58v-4.19c0-17.26,0-34.53,0-51.79q0-6.35-5.94-8.23c-.54-.17-1-.59-2.48-1.5h14.66Z"/><path class="cls-5" d="M1.12,160.27h13.31v4.3c0,17.13,0,34.25,0,51.38q0,6.7,6.3,8.86c.44.15.81.49,2.14,1.32h-14.52v-4.37c0-16.31-.06-32.62.03-48.93.03-5.58,1.01-11.5-8.38-11.21.37-.45.75-.9,1.12-1.35Z"/><path class="cls-9" d="M1002.11,180.9c-.82,3.9-2.23,7.79-2.34,11.71-.32,11.11-.11,22.24-.11,33.87-4.72-.4-9.21,1.08-14.27-1.22q8.01-3.12,8.01-11.21c0-14,0-28,0-42q0-8.23-6.94-11.22c6.48-2.84,13.12,1.3,13.19,8.24.03,3.4-.02,6.8.08,10.19,0,.21,1.01.38,1.54.57.28.35.56.7.84,1.06Z"/><path class="cls-9" d="M717.44,205.46c-.22-.54-.44-1.08-.66-1.62.51-3.03,1.38-6.06,1.45-9.11.2-8.69.07-17.38.07-26.07,0-5.64-.27-5.96-5.94-7.24-.45-.1-.87-.33-1.25-1.1h13.22c.06,1.23.18,2.65.18,4.08.01,16.43,0,32.86,0,49.3q0,8.58,6.94,12.03c-7.08,2.62-13.04-1.48-13.19-8.91-.08-3.79-.53-7.57-.82-11.35Z"/><path class="cls-2" d="M1002.11,180.9c-.28-.35-.56-.7-.84-1.06,5.04-10.13,11.75-18.24,23.9-19.75.94-.12,1.89-.17,2.84-.19.52-.01,1.03.11,1.76.2v13.61c-.98-2.53-1.61-4.08-2.17-5.65-1.68-4.68-2.52-5.17-7.4-3.79-7.56,2.13-12.25,7.67-16.32,13.91-.59.9-1.18,1.81-1.77,2.72Z"/><path class="cls-23" d="M494.15,164.66c-3.49-1.42-6.58-2.69-9.68-3.96.03-.18.06-.35.1-.53h12.65c-4.76,14.44-9.49,28.76-14.21,43.09-.48-.15-.96-.31-1.44-.46,4.15-12.56,8.29-25.13,12.59-38.14Z"/><path class="cls-12" d="M426.86,224.21c-.54-.36-1.08-.72-1.62-1.08,3.26-8.98,6.55-17.95,9.78-26.93,3.24-9.01,6.43-18.05,9.65-27.07.28.37.55.75.83,1.12-6.21,17.99-12.43,35.97-18.64,53.96Z"/><path class="cls-25" d="M841.45,160.19c0-.39,0-.77.01-1.16,2.15.22,4.29.56,6.44.63,3.42.11,6.84.03,10.52.03v13.71c-.15.09-.3.17-.46.26-.9-2.11-2.09-4.15-2.63-6.35-.99-4.07-3.69-5.62-7.49-6.06-2.14-.25-4.26-.69-6.39-1.05Z"/><path class="cls-25" d="M1172.75,160.18c0-.39,0-.77.01-1.16,2.28.23,4.56.59,6.85.67,3.28.12,6.57.03,10.14.03v14.79c-1.27-2.9-2.41-4.82-2.94-6.89-1.04-4.1-3.52-6.09-7.66-6.41-2.15-.17-4.27-.67-6.4-1.03Z"/><path class="cls-5" d="M1050.74,138.56c-1.91,1.63-3.83,3.28-5.77,4.94-1.39-1.51-3.09-3.35-4.73-5.13,1.61-1.51,3.5-3.28,5.59-5.24,1.28,1.42,2.9,3.21,4.91,5.43Z"/><path class="cls-10" d="M15.49,138.49c-1.55,1.58-3.31,3.4-5.12,5.25-1.6-1.67-3.33-3.48-4.96-5.18,1.65-1.67,3.49-3.52,5.3-5.36,1.44,1.59,3.13,3.47,4.78,5.29Z"/><path class="cls-13" d="M126.61,226c0-.28.02-.57.03-.85.92.19,1.83.37,3.26.67,1.19-3.9,2.39-7.85,3.6-11.79.18-.02.37-.04.55-.06.37,4,.74,8,1.18,12.74-3.17-.26-5.89-.48-8.62-.7Z"/><path class="cls-13" d="M896.12,225.98c-.02-.27-.02-.54.01-.81.91.21,1.82.41,3.11.71,1.23-3.99,2.46-7.95,3.68-11.91.18-.01.36-.03.55-.04.36,4.1.73,8.19,1.14,12.86-3.22-.31-5.86-.56-8.49-.81Z"/><path class="cls-7" d="M520.76,163.71c-.34-.3-.69-.6-1.03-.89,3.63-2.01,7.21-4.2,11.66-3.11.14.22.27.44.37.68-3.67,1.11-7.34,2.22-11.01,3.32Z"/><path class="cls-32" d="M543.33,160.56c-.83-.55-1.65-1.09-2.48-1.64.22-.33.43-.67.65-1,.83.53,1.67,1.07,2.5,1.6-.22.34-.45.69-.67,1.03Z"/><path class="cls-32" d="M531.76,160.39c-.11-.23-.23-.46-.37-.68.52-.45,1.04-.89,1.55-1.34.21.3.41.6.62.91-.6.37-1.2.74-1.8,1.11Z"/><path class="cls-28" d="M475.33,221.85c.52-1.57,1.04-3.13,1.56-4.7.38.11.77.23,1.15.34-.56,1.83-1.13,3.66-1.69,5.5-.34-.38-.68-.76-1.02-1.14Z"/><path class="cls-28" d="M481.91,205.57l-.64,1.76c-.19-.04-.38-.07-.57-.11.1-.67.19-1.35.29-2.02.31.12.62.25.92.37Z"/><path class="cls-28" d="M479.55,209.3c.27-.55.54-1.09.81-1.64.2.06.4.12.6.18-.16.63-.32,1.26-.47,1.88-.31-.14-.62-.29-.94-.43Z"/><path class="cls-28" d="M478.73,211.71c.28-.53.56-1.06.84-1.59.21.09.42.17.64.26-.2.59-.4,1.18-.6,1.77-.29-.15-.59-.29-.88-.44Z"/><path class="cls-28" d="M479.61,213.01c-.27.55-.55,1.1-.82,1.65-.21-.06-.42-.12-.63-.18.16-.64.33-1.27.49-1.91.32.15.63.29.95.44Z"/><path class="cls-28" d="M477.19,216.77c.22-.6.45-1.2.68-1.81.2.04.4.08.59.11-.1.69-.21,1.38-.31,2.07-.32-.13-.64-.26-.96-.38Z"/><path class="cls-28" d="M482.79,203.24c-.26.53-.51,1.06-.77,1.6-.2-.06-.4-.11-.6-.17.15-.62.31-1.24.46-1.86.3.14.61.28.91.43Z"/><path class="cls-28" d="M111.49,36.55c-.33-2.86-.65-5.72-1.01-8.83h13.1c-.7.66-.92,1.01-1.22,1.14q-4.85,2.07-2.89,7.07c5.85,14.99,11.71,29.98,17.57,44.97,1.08,2.77,2.13,5.56,3.33,8.28.11.25,1.17.07,1.78.09.34.38.68.76,1.02,1.14-.58,5.37-4.57,3.06-7.64,3.49-5.79-14.79-11.54-29.5-17.31-44.2-1.63-4.15-3.31-8.28-4.98-12.41-.03-.06-.26-.11-.33-.07-.21.12-.39.3-.58.46-.28-.37-.55-.75-.83-1.12Z"/><path class="cls-28" d="M93.67,91.64c-.23,3-2.54,2.42-4.26,2.2-1.23-.16-3.08-.85-3.41-1.76-7.73-21.26-15.3-42.59-22.88-63.9-.03-.09.11-.24.17-.38h13.78q-6.26,3.27-4.02,9.55c6.34,17.74,12.67,35.47,19.01,53.21.54.36,1.08.72,1.62,1.08Z"/><path class="cls-23" d="M160.97,32.09c-3.49-1.42-6.58-2.69-9.68-3.96.03-.18.06-.35.1-.53h12.65c-4.76,14.44-9.49,28.76-14.21,43.09-.48-.15-.96-.31-1.44-.46,4.15-12.56,8.29-25.13,12.59-38.14Z"/><path class="cls-12" d="M93.67,91.64c-.54-.36-1.08-.72-1.62-1.08,3.26-8.98,6.55-17.95,9.78-26.93,3.24-9.01,6.43-18.05,9.65-27.07.28.37.55.75.83,1.12-6.21,17.99-12.43,35.97-18.64,53.96Z"/><path class="cls-28" d="M142.14,89.27c.52-1.57,1.04-3.13,1.56-4.7.38.11.77.23,1.15.34-.56,1.83-1.13,3.66-1.69,5.5-.34-.38-.68-.76-1.02-1.14Z"/><path class="cls-28" d="M148.73,73l-.64,1.76c-.19-.04-.38-.07-.57-.11.1-.67.19-1.35.29-2.02.31.12.62.25.92.37Z"/><path class="cls-28" d="M146.37,76.72c.27-.55.54-1.09.81-1.64.2.06.4.12.6.18-.16.63-.32,1.26-.47,1.88-.31-.14-.62-.29-.94-.43Z"/><path class="cls-28" d="M145.55,79.13c.28-.53.56-1.06.84-1.59.21.09.42.17.64.26-.2.59-.4,1.18-.6,1.77-.29-.15-.59-.29-.88-.44Z"/><path class="cls-28" d="M146.43,80.44c-.27.55-.55,1.1-.82,1.65-.21-.06-.42-.12-.63-.18.16-.64.33-1.27.49-1.91.32.15.63.29.95.44Z"/><path class="cls-28" d="M144.01,84.19c.22-.6.45-1.2.68-1.81.2.04.4.08.59.11-.1.69-.21,1.38-.31,2.07-.32-.13-.64-.26-.96-.38Z"/><path class="cls-28" d="M149.61,70.67c-.26.53-.51,1.06-.77,1.6-.2-.06-.4-.11-.6-.17.15-.62.31-1.24.46-1.86.3.14.61.28.91.43Z"/></g></svg>