<?xml version="1.0" encoding="UTF-8"?><svg id="Layer_2" xmlns="http://www.w3.org/2000/svg" width="119.28" height="119.3" viewBox="0 0 119.28 119.3"><defs><style>.cls-1{fill:#fff;}.cls-1,.cls-2{stroke:#004e41;stroke-miterlimit:10;}.cls-2{fill:#f9f9f9;}</style></defs><g id="Layer_1-2"><path class="cls-2" d="M59.56,118.8c-32.65,0-59.03-26.38-59.06-59.08C.48,27.03,26.82.57,59.47.5c32.91-.07,59.34,26.4,59.31,59.39-.03,32.56-26.51,58.9-59.22,58.91ZM104.5,59.81c.19-24.29-20.38-44.93-44.81-44.99-24.21-.05-44.51,20.02-44.9,44.4-.4,24.9,19.68,45.17,44.8,45.25,24.84.07,44.71-19.69,44.91-44.66Z"/><path class="cls-1" d="M60.27,72.84c-7.05.04-12.55-5.41-12.67-12.55-.13-7.17,5.64-12.93,12.88-12.87,7.24.06,12.81,5.78,12.72,13.09-.08,6.89-5.74,12.3-12.93,12.33Z"/></g></svg>