<?xml version="1.0" encoding="UTF-8"?><svg id="Layer_2" xmlns="http://www.w3.org/2000/svg" width="708.09" height="255.77" viewBox="0 0 708.09 255.77"><defs><style>.cls-1{fill:#fff;stroke-width:0px;}</style></defs><g id="Layer_1-2"><path class="cls-1" d="M147.71,107.31c0-16.15-.8-32.36.19-48.45,1.53-24.88,15.07-42.27,38.03-50.85,23.59-8.82,45.24-3.82,63.3,14.21,10.87,10.85,16.5,24.21,16.63,39.49.27,31.98.16,63.96.13,95.95,0,5.58-3,8.92-7.38,8.82-4.41-.1-7.01-3.32-7.02-9.07-.03-29.15-.12-58.3.06-87.45.08-12.97-1.64-25.12-10.47-35.49-11.7-13.74-31.94-19.61-48.96-13.78-17.82,6.11-30.03,22.38-30.17,41.15-.23,31.15-.09,62.3-.11,93.45,0,7.55-2.22,11.03-7.04,11.19-5.02.16-7.48-3.43-7.49-11.19-.03-15.99,0-31.98,0-47.97.11,0,.22,0,.33,0Z"/><path class="cls-1" d="M560.36,63.57c0,16.16.55,32.34-.13,48.48-.95,22.58-17.14,43.9-38.29,50.89-23.97,7.92-45.37,3.27-63.32-14.82-11.36-11.45-16.48-25.59-16.51-41.6-.06-30.66-.04-61.33,0-91.99,0-1.97-.14-4.47.94-5.77,1.61-1.96,4.35-4.39,6.4-4.21,2.34.21,4.97,2.69,6.48,4.87,1.06,1.52.56,4.19.57,6.35.03,29.83.06,59.66.01,89.49-.03,19.07,8.16,33.44,24.94,42.38,27.68,14.75,63.93-6.16,64.48-37.44.55-31.49.17-62.99.26-94.48,0-2.3-.21-5.08.94-6.78,1.38-2.05,4.2-4.51,6.25-4.38,2.34.14,5.1,2.54,6.57,4.71,1.14,1.68.74,4.51.75,6.83.05,15.83.03,31.66.03,47.49-.12,0-.24,0-.37,0Z"/><path class="cls-1" d="M589.84,103.79c0-16.17-.45-32.35.1-48.49,1-29.14,26.36-53.75,55.15-55.22,35.23-1.8,59.84,25.67,62.24,50.82.38,3.97.7,7.97.71,11.96.06,29.67.04,59.33,0,89,0,1.97-.1,4.03-.66,5.9-1.04,3.48-3.65,5.09-7.25,4.72-3.59-.36-5.82-2.38-6.2-6.04-.22-2.15-.2-4.33-.2-6.49-.01-29.83.07-59.67-.04-89.5-.07-18.69-8.53-32.55-24.99-41.29-27.99-14.85-64.06,6.19-64.5,37.9-.43,31.33-.12,62.67-.15,94,0,1.83.09,3.71-.31,5.46-.86,3.81-3.14,6.27-7.35,6-4.12-.27-6.32-2.65-6.62-6.74-.12-1.66-.12-3.33-.12-4.99,0-15.67,0-31.33,0-47h.19Z"/><path class="cls-1" d="M118.27,67.38c0,15.83.38,31.67-.09,47.49-.68,22.91-16.46,44.14-37.76,51.82-23.43,8.44-48.52,2.44-64.59-15.11C5.17,139.94.05,126.31.03,110.68-.02,79.68,0,48.68.04,17.68c0-1.65.1-3.38.61-4.92,1.14-3.44,3.73-4.97,7.34-4.64,3.4.32,5.55,2.19,6.11,5.56.3,1.79.25,3.65.25,5.48.01,30,.05,60,0,90-.03,19.1,8,33.82,25.1,42.19,31.08,15.23,63.89-7.91,64.39-37.41.54-31.66.18-63.33.23-94.99,0-1.82,0-3.7.43-5.45.9-3.72,3.41-5.66,7.29-5.39,3.84.26,6.23,2.35,6.45,6.28.23,4.15.22,8.33.22,12.49.02,13.5,0,27,0,40.5-.06,0-.13,0-.19,0Z"/><path class="cls-1" d="M353.97,166.43c-32.65,0-59.03-26.38-59.06-59.08-.02-32.69,26.32-59.15,58.97-59.22,32.91-.07,59.34,26.4,59.31,59.39-.03,32.56-26.51,58.9-59.22,58.91ZM398.91,107.45c.19-24.29-20.38-44.93-44.81-44.99-24.21-.05-44.51,20.02-44.9,44.4-.4,24.9,19.68,45.17,44.8,45.25,24.84.07,44.71-19.69,44.91-44.66Z"/><path class="cls-1" d="M382.68,217.54h5.06v38.23c-1.62-.92-3.61-2.03-5.97-3.37-5.26,3.84-10.84,4.31-14.91.7-4.93-4.38-5.96-13.92-2.21-20.3,3.27-5.54,9.42-6.99,18.03-4.04v-11.22ZM383.53,241.02l-.62-.11c0-1.83.63-4-.14-5.4-1.42-2.59-3.27-5.46-5.72-6.79-1.44-.78-4.92.59-6.52,2.04-4.46,4.07-4.76,14.71-1.05,19.44,3.55,4.53,9.68,4.14,12.2-1.09,1.17-2.43,1.26-5.38,1.84-8.09Z"/><path class="cls-1" d="M312.26,228.46c3.88-1.24,5.65.68,5.64,4.99-.02,4.5.11,9-.01,13.5-.1,3.68,1.71,6.04,5.14,5.99,3.35-.05,5.26-2.41,5.21-6.05-.07-5.17-.2-10.34.13-15.49.08-1.28,1.78-2.47,2.74-3.7.75.3,1.5.6,2.24.9v26.82c-.88-.27-2.57-.91-4.32-1.26-.93-.18-2.04-.05-2.92.3-7.32,2.91-12.59-.48-12.85-8.45-.14-4.16.03-8.33-.1-12.5-.05-1.64-.56-3.27-.89-5.07Z"/><path class="cls-1" d="M453.93,241.66c.02-8.53,4.62-13.51,12.45-13.48,7.27.03,12.67,5.98,12.52,13.78-.16,8.02-5.39,13.51-12.82,13.46-7.7-.05-12.17-5.11-12.15-13.76ZM474.23,241.43c-.03-.52-.05-1.52-.15-2.51-.56-5.45-3.9-9.44-7.89-9.44-3.77,0-7.43,4.3-8,9.46-.11.99-.08,1.99-.08,2.99.02,6.84,3.35,12.01,7.83,12.19,4.77.19,8.28-4.99,8.29-12.69Z"/><path class="cls-1" d="M232.51,239.66c.5,2.29,1,3.76,1.1,5.25.11,1.61-.84,3.71-.11,4.77,1.26,1.85,3.29,3.85,5.31,4.26,1.4.29,4.5-1.77,4.74-3.15.35-1.98-.66-4.81-2.09-6.34-1.59-1.7-4.34-2.28-6.51-3.49-4.54-2.53-6.12-6.08-4.49-9.81,1.52-3.48,5.87-5.1,10.35-3.69,1.06.33,2.44,1,2.79,1.87.44,1.09-.04,2.54-.11,3.84-1.01-.53-2.09-.95-3-1.62-1.29-.94-2.34-2.33-3.74-2.94-.42-.18-2.47,1.64-2.43,2.48.09,1.82.53,4.19,1.77,5.24,2.09,1.79,4.96,2.63,7.39,4.04,5.07,2.95,6.61,7.58,4,11.61-2.59,3.99-9.7,4.78-13.86,1.53-4.3-3.36-5.18-8.99-1.1-13.84Z"/><path class="cls-1" d="M276.37,228.31c2.33-1.43,2.5-4.25-.46-7.73,4.32-1.31,5.54.45,6.39,4.75.72,3.65-.59,6.85-.31,10.29.32,3.96-.09,7.97.14,11.94.14,2.49.88,4.94,1.4,7.65-3.71-.1-5.5-2.57-5.59-6.49-.13-5.31.06-10.62-.1-15.92-.04-1.37-.86-2.72-1.47-4.48Z"/><path class="cls-1" d="M424.15,255.25h-4.83v-26.9c3.14-.81,4.92.49,4.86,4.57-.11,7.26-.03,14.53-.03,22.34Z"/><path class="cls-1" d="M354.68,120.47c-7.05.04-12.55-5.41-12.67-12.55-.13-7.17,5.64-12.93,12.88-12.87,7.24.06,12.81,5.78,12.72,13.09-.08,6.89-5.74,12.3-12.93,12.33Z"/></g></svg>